<?xml version="1.0" standalone="no"?><!-- Generator: Gravit.io --><svg xmlns="http://www.w3.org/2000/svg" xmlns:xlink="http://www.w3.org/1999/xlink" style="isolation:isolate" viewBox="0 0 500 500" width="500px" height="500px"><defs><clipPath id="_clipPath_uj8YOpEoGXHHXgAu57QlfgmbQTk6bbF2"><rect width="500" height="500"/></clipPath></defs><g clip-path="url(#_clipPath_uj8YOpEoGXHHXgAu57QlfgmbQTk6bbF2)"><g style="isolation:isolate"><path d=" M 195.314 274.073 Q 195.517 273.906 195.722 273.74 Q 190.148 267.967 188.754 265.18 C 187.361 262.392 185.569 257.017 185.569 249.253 C 185.569 241.488 191.235 235.542 196.121 232.729 C 202.69 228.946 211.251 229.543 219.016 232.53 Q 226.78 235.516 234.942 244.475 Q 233.748 235.516 230.164 230.14 C 226.581 224.765 213.64 218.992 207.867 212.621 Q 202.093 206.25 199.903 183.952 Q 197.713 186.74 196.718 193.509 Q 195.722 200.278 196.718 204.657 Q 191.741 195.898 190.347 190.323 C 188.954 184.749 181.786 163.447 190.347 144.135 Q 198.908 124.824 217.423 112.281 Q 249.659 90.531 281.13 113.874 C 311.192 136.172 312.785 165.836 309.799 180.966 Q 306.815 196.087 299.645 204.657 Q 300.75 200.717 300.392 195.549 Q 299.944 189.079 297.057 182.36 Q 295.788 185.997 295.465 193.509 C 295.216 199.282 290.886 209.236 284.316 215.806 C 277.746 222.376 267.593 226.557 263.611 231.733 Q 259.629 236.909 262.018 244.475 Q 268.955 236.73 276.751 232.928 C 284.913 228.946 298.65 230.937 303.428 234.919 C 308.206 238.9 312.586 248.257 309.799 257.216 Q 307.012 266.175 301.835 273.143 Q 310.595 270.754 313.183 269.161 Q 315.771 267.569 319.355 261.994 Q 326.721 264.781 335.282 268.365 C 343.843 271.949 356.584 275.731 370.321 276.328 C 384.058 276.926 409.541 277.722 418.102 279.514 C 426.662 281.306 446.67 294.922 446.77 318.236 C 446.87 341.43 429.45 348.995 420.789 351.583 C 411.119 354.473 398.492 352.18 390.329 349.194 C 383.173 346.576 370.122 341.828 365.543 341.629 C 360.964 341.43 361.163 346.805 359.172 346.407 Q 357.181 346.009 352.801 341.629 Q 353.2 348.398 355.987 352.778 C 358.774 357.157 365.244 362.931 372.113 361.338 C 376.699 360.275 381.868 357.854 383.66 361.936 C 384.963 364.903 383.66 368.207 378.185 373.582 C 372.559 379.106 366.041 378.858 361.263 378.161 C 355.944 377.385 344.838 370.496 339.96 362.035 C 335.307 353.963 334.516 340.93 336.078 330.679 C 337.671 320.227 350.96 314.105 360.765 312.96 C 374.169 311.395 394.41 322.915 398.193 323.91 C 401.976 324.906 408.579 321.338 409.541 322.417 C 410.503 323.496 407.451 327.991 411.233 326.1 C 414.951 324.241 417.303 318.775 417.405 313.657 C 417.504 308.68 411.333 297.432 411.432 303.504 Q 411.563 311.471 408.347 310.472 Q 407.708 307.225 407.052 302.309 C 406.455 297.83 402.971 296.138 402.075 297.332 C 401.179 298.527 404.166 308.979 398.193 310.571 C 392.221 312.164 376.294 304.201 363.95 303.404 Q 351.607 302.608 338.467 309.775 Q 331.499 297.88 328.613 295.043 Q 323.414 289.933 312.984 287.477 Q 317.762 294.047 324.133 304.997 C 330.504 315.947 327.518 343.022 320.948 357.556 C 314.378 372.089 296.46 382.74 302.433 405.038 C 308.405 427.335 329.388 421.967 333.689 418.078 C 340.956 411.508 342.549 404.54 341.653 398.966 C 340.757 393.391 336.83 387.308 338.467 384.034 C 339.463 382.043 345.236 380.052 352.801 392.595 C 360.744 405.763 361.561 426.041 349.616 438.783 C 336.305 452.981 308.206 447.144 293.872 438.783 C 279.538 430.421 271.574 398.766 273.167 381.446 Q 274.76 364.125 279.538 349.592 L 285.909 355.963 Q 283.121 341.43 284.316 341.629 Q 285.51 341.828 293.872 344.814 Q 280.732 327.295 269.982 317.738 Q 259.231 308.182 247.684 303.404 Q 231.956 312.363 220.608 322.516 Q 209.26 332.67 203.089 346.407 Q 207.535 344.173 209.658 343.371 C 210.67 342.989 211.915 342.508 213.441 341.977 Q 212.147 345.561 211.351 348.547 Q 210.554 351.533 210.007 355.814 Q 215.88 349.941 217.373 350.488 C 218.866 351.036 225.984 385.826 221.803 405.735 C 217.766 424.959 211.939 433.007 195.523 442.565 C 179.796 451.723 160.164 449.522 149.734 440.973 C 137.589 431.018 136.196 410.313 139.381 398.966 C 142.566 387.618 153.914 381.247 156.901 383.039 C 159.887 384.83 159.688 388.016 157.498 391.201 C 155.418 394.226 151.973 401.582 156.502 411.707 C 159.887 419.272 171.016 422.408 180.791 419.671 C 190.745 416.883 194.528 404.739 194.329 394.188 C 194.13 383.636 180.684 368.143 174.42 355.963 C 167.253 342.027 167.253 326.896 168.846 314.553 C 170.439 302.21 177.407 294.445 182.384 287.477 Q 182.516 287.292 182.651 287.107 Q 182.568 287.093 182.483 287.079 Q 171.135 290.762 165.362 297.133 Q 160.777 302.192 158.095 310.472 Q 145.652 303.504 134.404 304.201 C 123.75 304.86 115.491 305.296 105.735 308.381 C 95.98 311.467 94.885 308.58 93.691 306.49 Q 92.496 304.4 93.591 296.834 Q 89.908 298.925 88.614 301.513 C 87.32 304.101 88.614 308.68 88.315 310.372 C 88.017 312.064 85.926 311.169 85.031 310.173 Q 84.135 309.178 84.533 301.015 Q 78.859 306.49 78.66 315.051 Q 78.461 323.611 87.519 327.892 L 86.524 323.014 Q 92.795 324.806 97.374 324.607 C 101.953 324.408 100.345 322.983 113.699 316.643 C 123.554 311.965 136.318 311.909 148.738 317.042 C 160.783 322.019 162.774 340.235 158.692 354.768 C 154.692 369.015 142.467 375.971 130.92 377.763 C 119.373 379.555 111.708 366.614 112.305 363.528 C 112.903 360.442 117.581 359.646 119.871 360.94 C 122.16 362.234 127.203 362.655 130.522 361.438 C 136.494 359.248 139.32 354.68 141.471 351.185 Q 143.861 347.303 142.268 340.733 Q 141.372 342.226 140.277 343.918 Q 139.182 345.61 137.987 346.705 Q 129.924 335.358 115.192 345.212 C 100.46 355.067 81.547 354.271 66.416 347.502 C 51.285 340.733 47.304 325.204 51.982 304.798 C 56.661 284.391 81.547 277.523 96.578 277.025 C 111.609 276.528 131.318 277.125 146.25 273.143 Q 161.181 269.161 175.615 260.999 Q 178.103 264.881 181.189 267.668 C 184.085 270.284 187.481 272.22 195.314 274.073 L 195.314 274.073 L 195.314 274.073 L 195.314 274.073 L 195.314 274.073 Z  M 156.403 245.171 Q 140.376 227.055 140.874 211.128 C 141.372 195.201 143.96 175.392 134.105 165.537 C 124.251 155.682 111.808 147.42 99.066 148.017 C 86.325 148.615 69.303 154.886 61.439 169.917 C 53.575 184.948 56.561 197.291 60.045 204.857 C 63.529 212.422 70.199 218.494 75.574 225.263 C 80.949 232.032 84.135 236.909 83.139 243.181 C 82.144 249.452 77.465 253.035 77.167 256.121 C 76.868 259.207 77.963 261.596 81.746 260.7 C 85.528 259.804 95.582 257.216 100.559 245.669 C 105.536 234.122 104.939 224.566 99.066 217.2 C 93.193 209.834 84.035 199.382 84.831 191.617 C 85.628 183.853 93.591 176.785 100.758 176.984 Q 107.925 177.184 112.305 178.478 Q 109.02 179.971 108.224 181.066 C 107.428 182.161 109.22 182.758 112.704 184.251 C 116.188 185.744 119.074 188.83 117.382 188.93 C 115.69 189.029 110.35 186.342 108.523 189.029 C 106.83 191.518 109.518 198.187 109.618 207.644 C 109.717 217.1 107.382 227.477 109.419 233.226 C 111.111 238.004 114.912 241.902 118.278 244.176 Q 121.961 246.665 127.237 248.357 Q 124.649 243.877 124.947 241.19 Q 125.246 238.502 125.843 236.312 Q 134.205 242.484 141.372 244.176 Q 149.128 246.007 156.403 245.171 L 156.403 245.171 L 156.403 245.171 L 156.403 245.171 L 156.403 245.171 Z  M 339.761 245.171 Q 349.962 233.533 353.001 222.575 C 356.285 210.73 352.403 195.699 355.091 183.256 C 357.779 170.813 365.643 153.194 388.04 148.913 C 403.811 145.899 425.667 154.587 432.635 166.433 C 442.409 183.048 440.698 201.074 430.744 213.417 C 417.452 229.899 412.328 234.919 413.125 241.986 C 413.921 249.054 420.391 255.325 419.495 258.013 C 418.599 260.7 412.527 263.388 405.758 258.212 C 398.989 253.035 391.922 242.583 392.619 231.733 C 393.316 220.883 405.46 210.53 409.242 201.074 C 413.025 191.617 410.073 184.419 405.41 181.464 C 400.383 178.279 395.705 177.831 391.424 177.93 Q 387.339 178.025 385.452 179.174 Q 388.836 180.892 388.737 181.986 C 388.637 183.081 382.59 183.778 381.495 185.072 Q 380.4 186.366 379.579 188.731 Q 385.933 187 387.194 188.681 C 388.388 190.273 388.239 195.499 386.397 205.056 C 384.903 212.808 388.338 222.376 387.741 228.05 C 387.237 232.84 385.103 238.602 379.778 242.832 Q 374.133 247.316 369.624 247.66 Q 370.867 245.12 370.968 242.434 Q 371.068 239.796 370.022 238.303 Q 363.751 242.185 357.48 243.877 Q 351.209 245.57 339.761 245.171 L 339.761 245.171 L 339.761 245.171 L 339.761 245.171 Z  M 331.649 206.35 Q 333.391 158.071 323.834 138.163 C 314.278 118.254 302.387 109.868 297.555 99.341 C 291.981 87.197 289.627 64.902 307.41 50.565 C 323.337 37.724 351.242 39.94 361.263 44.99 C 373.706 51.262 380.493 64.495 380.375 76.247 C 380.275 86.151 375.448 92.522 372.81 95.06 C 370.172 97.599 365.895 98.809 364.348 95.16 C 362.407 90.581 363.851 84.061 362.457 80.278 C 361.253 77.01 358.449 73.663 353.349 69.826 C 348.123 65.894 344.689 64.401 341.553 64.152 Q 338.417 63.903 341.653 67.487 Q 339.512 67.835 334.784 67.736 Q 330.056 67.636 326.373 68.084 Q 329.933 70.29 331.798 70.921 C 334.884 71.966 336.427 71.966 333.789 73.808 C 330.947 75.792 322.54 84.26 323.834 96.703 C 325.128 109.146 330.802 118.851 335.282 126.217 C 339.761 133.584 344.938 141.945 346.53 150.705 Q 348.123 159.465 348.322 165.437 Q 344.44 156.08 340.359 151.302 Q 336.277 146.524 334.784 145.628 Q 338.368 165.139 338.069 176.686 Q 337.77 188.233 331.649 206.35 L 331.649 206.35 L 331.649 206.35 Z  M 164.665 208.042 Q 161.081 164.641 169.244 146.325 C 177.407 128.009 187.162 114.471 195.125 105.911 C 203.089 97.35 205.179 75.55 199.007 62.609 C 192.836 49.669 173.624 41.009 161.081 41.009 C 148.539 41.009 126.64 42.303 118.676 61.913 C 110.891 81.083 123.355 95.16 125.246 96.355 C 127.137 97.549 129.347 97.894 131.318 96.554 C 133.807 94.861 131.837 88.37 133.11 82.916 C 134.503 76.944 138.585 72.166 144.856 67.686 Q 149.037 64.7 155.507 64.003 Q 154.113 66.193 154.213 67.587 C 154.313 68.98 160.882 67.885 163.769 67.786 Q 166.656 67.686 168.547 68.682 Q 162.973 70.473 161.579 71.369 C 160.186 72.265 163.869 74.356 166.158 76.346 C 168.448 78.337 173.624 84.808 171.434 95.558 C 169.244 106.309 166.855 114.77 158.593 129.602 C 150.331 144.434 148.738 152.198 148.24 155.881 Q 147.743 159.564 148.24 165.338 Q 152.521 156.279 155.408 152.795 Q 158.294 149.311 160.982 146.425 Q 157.896 161.257 157.498 174.795 Q 157.1 188.332 164.665 208.042 L 164.665 208.042 Z  M 195.822 243.081 Q 209.261 241.644 219.812 249.153 C 230.861 257.017 236.172 265.38 238.128 271.451 C 240.277 278.121 235.614 287.693 232.454 288.473 C 230.808 288.879 232.271 280.924 229.866 278.419 C 227.477 275.93 219.466 275.985 215.432 278.817 Q 210.753 282.102 206.971 288.473 Q 205.776 283.296 206.772 280.31 Q 207.767 277.324 212.147 273.939 Q 205.776 272.645 202.093 267.171 C 198.41 261.696 200.501 254.13 198.709 250.149 Q 196.917 246.167 195.822 243.081 L 195.822 243.081 Z  M 264.208 288.672 Q 257.041 282.021 257.041 275.333 C 257.041 268.863 264.188 258.372 271.475 252.438 C 278.443 246.764 283.818 243.977 290.288 242.882 Q 296.803 241.78 300.84 242.782 Q 298.053 248.058 297.456 250.945 C 296.858 253.832 297.854 259.705 296.361 263.288 C 295.435 265.511 293.673 269.062 289.691 271.451 C 286.561 273.329 283.619 274.238 284.714 274.736 C 285.809 275.233 288.497 277.921 289.393 281.505 Q 290.288 285.088 289.393 287.776 Q 285.112 281.704 282.922 279.912 C 280.732 278.12 278.343 276.428 274.66 276.229 C 271.18 276.041 266.896 277.125 265.403 280.211 Q 263.909 283.296 264.208 288.672 L 264.208 288.672 Z " fill-rule="evenodd" fill="rgb(29,30,31)"/></g></g></svg>