<?xml version="1.0" standalone="no"?><!-- Generator: Gravit.io --><svg xmlns="http://www.w3.org/2000/svg" xmlns:xlink="http://www.w3.org/1999/xlink" style="isolation:isolate" viewBox="0 0 500 500" width="500px" height="500px"><defs><clipPath id="_clipPath_JjKKH0hkRX3T8GwwgYj7npVRPSu12RJ6"><rect width="500" height="500"/></clipPath></defs><g clip-path="url(#_clipPath_JjKKH0hkRX3T8GwwgYj7npVRPSu12RJ6)"><path d=" M 471.004 50.11 C 471.004 38.459 461.546 29 449.877 29 L 50.105 29 C 38.454 29 28.996 38.459 28.996 50.11 L 28.996 449.89 C 28.996 461.541 38.454 471 50.105 471 L 449.877 471 C 461.546 471 471.004 461.541 471.004 449.89 L 471.004 50.11 Z " fill-rule="evenodd" fill="rgb(29,30,31)"/><path d=" M 182.299 265.792 Q 182.615 265.684 182.934 265.576 Q 178.839 256.201 178.412 252.252 C 177.985 248.303 178.232 241.084 181.682 231.807 C 185.131 222.53 194.542 217.942 201.63 216.752 C 211.161 215.151 221.124 219.668 229.074 226.685 Q 237.024 233.703 242.797 248.033 Q 245.35 236.798 243.456 228.784 C 241.563 220.769 228.666 208.122 224.598 197.945 Q 220.53 187.768 227.82 160.153 Q 223.965 162.511 219.768 170.156 Q 215.572 177.801 214.815 183.477 Q 212.76 170.799 213.571 163.52 C 214.383 156.24 215.283 127.604 234.091 108.333 Q 252.899 89.063 280.594 82.303 Q 328.773 70.637 356.005 112.509 C 382.018 152.507 370.742 188.657 360.452 205.409 Q 350.168 222.149 337.795 229.205 Q 340.865 224.987 342.733 218.654 Q 345.073 210.724 344.609 201.413 Q 341.477 205.196 337.753 214.026 C 334.89 220.814 325.294 230.784 314.526 235.715 C 303.757 240.646 289.768 241.13 282.711 245.546 Q 275.654 249.962 275.147 260.062 Q 286.877 253.891 297.88 252.811 C 309.402 251.68 324.93 260.161 328.87 267.042 C 332.81 273.922 333.886 287.048 326.576 296.514 Q 319.266 305.98 309.985 312.006 Q 321.513 313.043 325.313 312.29 Q 329.113 311.536 335.871 306.468 Q 343.434 313.071 352.071 321.156 C 360.707 329.241 374.25 339.421 390.398 346.238 C 406.546 353.054 436.64 365.327 446.072 371.271 C 455.505 377.215 473.361 402.373 463.123 430.274 C 452.938 458.03 428.763 459.33 417.265 458.575 C 404.427 457.732 390.358 449.382 381.932 442.188 C 374.545 435.88 361.061 424.409 355.678 422.137 C 350.296 419.865 348.145 426.376 345.944 425.015 Q 343.742 423.655 340.454 416.476 Q 337.923 424.741 339.307 431.212 C 340.692 437.684 345.858 447.457 354.772 448.605 C 360.724 449.372 367.975 448.776 368.303 454.449 C 368.541 458.573 365.517 461.942 356.587 465.932 C 347.411 470.032 339.733 466.84 334.334 463.885 C 328.323 460.595 318.115 447.43 316.046 435.153 C 314.072 423.441 318.917 407.518 325.338 395.964 C 331.884 384.183 350.482 382.772 362.706 385.761 C 379.417 389.846 398.484 412.602 402.561 415.472 C 406.639 418.342 416.114 417.013 416.783 418.729 C 417.453 420.446 411.809 424.461 417.169 423.882 C 422.437 423.312 427.675 417.826 430.071 411.757 C 432.401 405.854 430.024 389.672 427.446 396.972 Q 424.062 406.549 420.663 403.926 Q 421.342 399.763 422.743 393.599 C 424.02 387.981 420.609 384.411 419.008 385.441 C 417.406 386.47 416.331 400.285 408.487 399.534 C 400.643 398.784 385.152 382.193 370.757 375.758 Q 356.363 369.323 337.479 372.048 Q 334.439 354.74 332.25 350.068 Q 328.308 341.653 316.938 334.085 Q 319.728 344.058 322.475 359.971 C 325.223 375.885 309.626 406.908 295.319 421.354 C 281.013 435.8 254.872 440.566 252.102 469.861 C 249.332 499.156 276.787 502.064 283.655 499.328 C 295.256 494.707 300.254 487.089 301.661 480.03 C 303.067 472.972 301.078 463.959 304.488 460.775 C 306.562 458.838 314.345 459.025 317.812 477.371 C 321.452 496.634 313.419 521.226 293.486 531.143 C 271.274 542.193 240.294 522.736 226.882 506.377 C 213.47 490.018 218.018 448.659 227.616 428.671 Q 237.214 408.684 249.38 393.442 L 254.161 403.884 Q 257.288 385.282 258.626 386.05 Q 259.965 386.819 268.629 394.102 Q 260.713 367.331 252.113 351.137 Q 243.514 334.943 231.84 324.104 Q 209.068 327.821 190.998 334.911 Q 172.929 342.001 159.452 355.672 Q 165.757 354.979 168.651 354.963 C 170.029 354.956 171.73 354.935 173.789 354.979 Q 170.651 358.686 168.373 361.9 Q 166.095 365.114 163.539 369.985 Q 173.165 365.577 174.706 366.895 C 176.247 368.212 169.294 412.942 155.454 434.872 C 142.09 456.049 131.553 463.076 107.692 467.203 C 84.832 471.158 62.353 459.806 53.689 444.957 C 43.602 427.668 51.135 402.311 59.983 390.167 C 68.83 378.024 85.219 375.453 87.991 378.921 C 90.763 382.388 89.11 386.106 85.078 388.939 C 81.25 391.629 73.865 398.888 74.779 412.997 C 75.462 423.54 87.365 432.23 100.261 433.303 C 113.393 434.395 123.308 421.565 127.758 408.87 C 132.208 396.174 123.026 371.69 120.953 354.354 C 118.581 334.518 125.303 316.44 132.69 302.4 C 140.076 288.359 151.851 282.178 160.894 276.063 Q 161.134 275.901 161.378 275.739 Q 161.284 275.686 161.19 275.632 Q 145.995 274.991 136.266 280.038 Q 128.54 284.046 121.658 292.747 Q 109.886 278.894 96.137 274.729 C 83.115 270.784 73.053 267.634 60.026 266.988 C 46.999 266.341 46.974 262.405 46.475 259.377 Q 45.976 256.348 50.646 247.796 Q 45.316 248.657 42.62 251.174 C 39.924 253.692 39.436 259.738 38.328 261.627 C 37.219 263.516 35.119 261.517 34.491 259.93 Q 33.863 258.342 37.965 248.767 Q 28.754 252.787 24.712 262.927 Q 20.671 273.067 29.593 282.206 L 30.57 275.936 Q 37.267 280.863 42.827 282.659 C 48.386 284.456 47.099 282.039 65.87 280.397 C 79.723 279.185 94.999 284.79 107.559 296.44 C 119.739 307.738 114.025 330.387 102.692 345.939 C 91.582 361.184 73.885 364.064 59.293 361.075 C 44.7 358.086 41.291 339.219 43.376 335.797 C 45.46 332.375 51.404 333.502 53.565 336.066 C 55.725 338.629 61.564 341.372 66.07 341.392 C 74.179 341.429 79.585 337.227 83.708 334.006 Q 88.287 330.429 89.303 321.872 Q 87.569 323.258 85.509 324.793 Q 83.449 326.329 81.535 327.107 Q 76.943 309.966 54.962 315.195 C 32.981 320.425 10.737 311.071 -4.334 296.261 C -19.405 281.451 -17.263 261.128 -2.607 238.825 C 12.049 216.521 44.834 219.371 63.014 225.454 C 81.195 231.537 104.479 241.007 124.088 242.883 Q 143.698 244.76 164.57 241.419 Q 165.818 247.163 168.267 251.864 C 170.565 256.276 173.763 260.098 182.299 265.792 L 182.299 265.792 L 182.299 265.792 L 182.299 265.792 L 182.299 265.792 Z  M 148.647 213.973 Q 137.547 185.207 145.217 166.398 C 152.888 147.589 164.781 125.071 157.384 108.918 C 149.988 92.765 138.791 77.366 123.302 72.419 C 107.813 67.471 84.689 67.402 68.615 81.868 C 52.541 96.333 50.626 112.408 51.427 122.995 C 52.229 133.582 57.5 143.8 60.915 154.276 C 64.331 164.752 65.97 171.995 61.994 179.046 C 58.019 186.096 50.837 188.299 49.109 191.854 C 47.381 195.408 47.628 198.749 52.546 199.359 C 57.463 199.969 70.626 201.344 81.702 189.758 C 92.779 178.173 96.311 166.49 92.567 155.079 C 88.822 143.669 82.523 127.112 86.924 118.188 C 91.325 109.265 103.98 104.359 112.455 107.781 Q 120.93 111.203 125.588 114.695 Q 121 115.019 119.562 115.974 C 118.124 116.928 119.999 118.438 123.499 121.77 C 126.998 125.102 129.076 130.071 127.01 129.438 C 124.944 128.806 119.758 123.222 116.381 125.621 C 113.253 127.843 113.502 137.006 109.419 148.349 C 105.337 159.692 97.937 171.053 97.816 178.827 C 97.715 185.288 100.526 191.634 103.536 195.846 Q 106.831 200.456 112.383 204.821 Q 111.281 198.32 112.832 195.241 Q 114.383 192.162 116.069 189.811 Q 123.318 200.9 131.13 206.106 Q 139.583 211.74 148.647 213.973 L 148.647 213.973 L 148.647 213.973 L 148.647 213.973 L 148.647 213.973 Z  M 367.727 295.434 Q 385.085 286.06 393.584 274.317 C 402.772 261.623 404.811 241.939 413.55 228.266 C 422.29 214.593 439.513 197.035 468.176 201.871 C 488.358 205.277 510.613 225.367 513.676 242.616 C 517.972 266.811 507.919 287.588 490.542 297.914 C 467.338 311.702 458.986 315.423 456.798 324.221 C 454.61 333.019 459.554 343.387 457.29 346.2 C 455.025 349.013 446.576 349.527 440.788 340.335 C 435 331.143 431.199 315.515 436.852 302.86 C 442.505 290.206 461.615 283.232 470.336 273.614 C 479.056 263.995 478.728 254.083 474.469 248.48 C 469.878 242.441 464.487 239.827 459.328 238.045 Q 454.405 236.343 451.639 236.878 Q 454.92 240.433 454.315 241.697 C 453.709 242.961 446.174 241.107 444.291 242.167 Q 442.408 243.227 440.376 245.687 Q 448.738 246.443 449.497 249.01 C 450.217 251.444 447.717 257.622 441.271 268.222 C 436.042 276.82 435.895 289.779 432.661 296.293 C 429.93 301.792 424.821 307.728 416.579 310.417 Q 407.842 313.267 402.302 311.674 Q 404.915 309.191 406.23 306.027 Q 407.52 302.92 406.935 300.671 Q 397.717 302.524 389.472 301.76 Q 381.228 300.995 367.727 295.434 L 367.727 295.434 L 367.727 295.434 L 367.727 295.434 Z  M 375.281 245.444 Q 398.811 188.534 396.238 160.502 C 393.665 132.469 383.183 117.166 382.086 102.442 C 380.821 85.455 387.914 57.771 415.531 48.541 C 440.265 40.274 472.622 55.32 482.352 65.806 C 494.433 78.827 496.663 97.653 491.301 111.643 C 486.782 123.433 478.183 128.9 473.904 130.761 C 469.624 132.622 463.977 132.167 463.75 127.121 C 463.465 120.787 468.086 113.638 468.101 108.499 C 468.115 104.06 466.251 98.814 461.862 91.965 C 457.365 84.945 453.925 81.635 450.289 79.945 Q 446.653 78.254 448.927 83.973 Q 446.215 83.439 440.609 81.219 Q 435.004 79 430.405 77.898 Q 433.679 82.115 435.626 83.698 C 438.849 86.318 440.692 87.004 436.722 88.032 C 432.446 89.14 418.639 95.523 414.657 110.965 C 410.675 126.407 413.143 140.524 415.223 151.315 C 417.302 162.106 419.772 174.397 417.783 185.571 Q 415.794 196.745 413.379 203.969 Q 412.897 191.065 410.144 183.542 Q 407.39 176.02 406.004 174.287 Q 401.618 199.19 396.131 212.854 Q 390.644 226.518 375.281 245.444 L 375.281 245.444 L 375.281 245.444 Z  M 175.014 173.281 Q 190.014 119.832 207.904 101.575 C 225.794 83.317 243.464 71.475 256.782 64.785 C 270.1 58.094 282.283 32.976 280.658 14.772 C 279.033 -3.431 259.926 -22.314 244.94 -27.886 C 229.954 -33.458 203.213 -41.642 184.986 -21.749 C 167.168 -2.302 175.806 20.054 177.535 22.322 C 179.264 24.589 181.75 25.983 184.701 25.257 C 188.427 24.341 188.958 15.71 192.901 9.759 C 197.219 3.242 204.219 -0.654 213.702 -3.22 Q 220.024 -4.93 228.064 -2.888 Q 225.426 -0.891 224.926 0.818 C 224.426 2.528 232.762 4.138 236.255 5.302 Q 239.749 6.465 241.566 8.495 Q 234.11 8.159 232.047 8.61 C 229.983 9.062 233.455 13.196 235.306 16.592 C 237.157 19.987 240.468 30.018 233.075 41.89 C 225.682 53.762 219.068 62.81 202.607 76.861 C 186.146 90.912 180.794 99.482 178.563 103.661 Q 176.332 107.841 174.362 114.96 Q 183.5 106.039 188.497 103.158 Q 193.494 100.278 197.988 98.023 Q 187.712 114.373 181.221 130.372 Q 174.731 146.37 175.014 173.281 L 175.014 173.281 Z  M 196.674 228.988 Q 213.37 233.242 222.64 246.901 C 232.348 261.206 234.978 273.558 234.618 281.68 C 234.222 290.605 224.399 299.97 220.276 299.498 C 218.13 299.251 223.411 290.397 221.651 286.335 C 219.902 282.3 210.306 278.806 204.228 280.398 Q 197.179 282.245 189.829 288.176 Q 190.701 281.461 193.217 278.335 Q 195.733 275.209 202.47 273.111 Q 195.433 268.735 193.465 260.557 C 191.497 252.379 197.355 244.269 196.983 238.715 Q 196.611 233.162 196.674 228.988 L 196.674 228.988 Z  M 258.129 313.843 Q 252.52 302.712 255.491 294.721 C 258.366 286.99 271.566 277.631 282.908 273.778 C 293.755 270.095 301.416 269.153 309.633 270.719 Q 317.906 272.296 322.284 275.288 Q 316.61 280.353 314.614 283.537 C 312.618 286.721 311.198 294.18 307.822 297.799 C 305.728 300.042 302.046 303.503 296.227 304.588 C 291.652 305.442 287.734 305.221 288.821 306.302 C 289.908 307.383 291.925 311.788 291.404 316.468 Q 290.882 321.148 288.617 323.961 Q 286.201 314.804 284.38 311.691 C 282.56 308.577 280.457 305.494 276.145 303.619 C 272.07 301.848 266.47 301.24 263.315 304.264 Q 260.16 307.288 258.129 313.843 L 258.129 313.843 Z " fill-rule="evenodd" fill="rgb(255,255,255)"/></g></svg>