<?xml version="1.0" standalone="no"?><!-- Generator: Gravit.io --><svg xmlns="http://www.w3.org/2000/svg" xmlns:xlink="http://www.w3.org/1999/xlink" style="isolation:isolate" viewBox="0 0 500 500" width="500px" height="500px"><defs><clipPath id="_clipPath_tmMUIwZdP7xYfcUUcFmxTCYQcy7QQyXM"><rect width="500" height="500"/></clipPath></defs><g clip-path="url(#_clipPath_tmMUIwZdP7xYfcUUcFmxTCYQcy7QQyXM)"><path d=" M 48.003 238.493 Q 30.926 213.169 37.026 187.71 C 43.11 162.319 61.73 145.319 80.934 136.927 Q 95.747 130.455 109.898 132.82 Q 86.621 116.888 89.399 88.136 C 92.176 59.384 115.51 40.773 142.829 34.988 C 169.28 29.387 199.963 38.349 215.833 56.646 Q 231.704 74.942 231.704 82.784 Q 240.432 80.543 247.177 80.543 Q 253.922 80.543 264.238 83.531 Q 282.333 54 311 45 C 339.667 36 363.21 38.647 384.06 55.276 C 404.91 71.906 415.007 98.467 405.882 114.523 Q 397.471 129.322 388.028 133.193 Q 420.183 137.458 434.316 147.88 C 447.145 157.34 467.644 182.731 457.064 222.063 C 447.426 257.892 435.639 253.429 446.748 263.884 C 457.858 274.34 482.986 304.212 469.76 338.067 Q 456.934 370.901 409.453 377.399 Q 407.568 384.96 401.418 389.908 Q 395.478 394.687 386.044 395.696 Q 388.028 456.56 347.161 467.389 C 306.295 478.218 281.299 463.281 268.602 448.719 Q 255.906 434.156 247.177 415.112 Q 231.307 456.56 204.327 465.522 C 177.347 474.484 138.862 469.629 123.785 450.959 Q 108.708 432.289 109.898 395.322 Q 101.02 393.999 95.218 389.348 Q 89.862 385.054 86.092 376.279 Q 36.497 379.266 23.007 338.191 Q 9.517 297.117 46.813 266.872 Q 55.542 260.897 55.542 253.802 Q 55.542 246.708 48.003 238.493 Z  M 195.896 249.135 C 194.805 246.241 209.287 247.787 219.801 254.829 C 230.811 262.204 236.103 270.047 238.052 275.74 C 240.193 281.995 235.547 290.972 232.398 291.703 C 230.758 292.083 232.215 284.624 229.819 282.274 C 227.439 279.941 219.456 279.992 215.436 282.648 Q 210.775 285.728 207.005 291.703 Q 205.815 286.849 206.807 284.048 Q 207.799 281.248 212.163 278.074 Q 205.815 276.86 202.145 271.726 C 198.475 266.591 202.74 260.99 202.343 256.136 C 201.947 251.282 196.987 252.029 195.896 249.135 L 195.896 249.135 L 195.896 249.135 L 195.896 249.135 L 195.896 249.135 L 195.896 249.135 L 195.896 249.135 Z  M 264.04 291.89 Q 256.898 285.652 256.898 279.381 C 256.898 273.313 264.02 263.474 271.281 257.91 C 278.224 252.589 283.58 249.975 290.028 248.948 Q 298.955 247.548 301.137 249.135 C 303.319 250.722 295.185 251.002 294.491 255.203 C 293.797 259.403 296.376 262.111 295.88 266.125 C 295.384 270.139 293.4 273.499 289.432 275.74 C 286.313 277.501 283.382 278.354 284.473 278.82 C 285.564 279.287 288.242 281.808 289.135 285.168 Q 290.028 288.529 289.135 291.049 Q 284.87 285.355 282.688 283.675 C 280.505 281.994 278.125 280.407 274.455 280.221 C 270.987 280.044 266.718 281.061 265.23 283.955 Q 263.742 286.849 264.04 291.89 L 264.04 291.89 L 264.04 291.89 L 264.04 291.89 L 264.04 291.89 L 264.04 291.89 L 264.04 291.89 Z  M 183.257 237.935 Q 153.612 225.212 153.765 210.27 C 153.94 193.081 151.638 179.735 140.964 171.375 C 128.933 161.952 114.782 160.478 102.688 164.159 C 90.595 167.839 75.872 177.709 72.248 193.248 C 68.623 208.786 74.727 219.219 80.058 225.205 C 85.389 231.192 93.391 235.042 100.332 239.842 C 107.272 244.642 111.612 248.27 112.297 254.19 C 112.983 260.11 109.423 264.505 109.944 267.371 C 110.465 270.237 112.144 272.129 115.546 270.386 C 118.948 268.643 127.936 263.823 129.697 252.148 C 131.458 240.474 128.382 231.974 120.806 226.757 C 113.23 221.539 102.587 214.147 100.421 207.117 C 97.132 196.443 104.964 189.802 111.907 188.215 Q 118.85 186.629 123.394 188.457 Q 120.627 190.617 120.148 191.804 C 119.669 192.992 121.548 193.09 125.289 193.583 C 129.029 194.075 132.613 196.156 131.012 196.663 C 129.411 197.17 123.574 196.054 122.52 198.936 C 121.545 201.605 125.876 206.977 128.448 215.509 C 131.02 224.042 131.493 234.006 134.956 238.706 C 137.835 242.613 142.51 245.202 146.341 246.43 Q 150.534 247.774 156.05 248.005 Q 152.388 244.59 151.971 242.085 Q 151.555 239.579 151.555 237.45 Q 161.211 240.974 168.545 240.739 Q 176.481 240.484 183.257 237.935 L 183.257 237.935 L 183.257 237.935 L 183.257 237.935 L 183.257 237.935 Z  M 316.898 242.952 Q 336.292 229.628 340.733 219.818 C 345.849 208.518 344.665 195.564 347.465 183.92 C 350.747 170.269 365.244 161.385 383.929 161.35 C 399.929 161.321 417.672 174.164 422.457 186.04 C 429.267 202.943 423.8 219.537 411.806 229.218 C 395.79 242.144 389.859 245.897 389.356 252.55 C 388.853 259.203 394.054 266.092 392.688 268.417 C 391.322 270.742 384.885 272.183 379.193 266.253 C 373.501 260.324 368.474 249.478 371.126 239.592 C 373.779 229.707 387.557 222.236 392.98 214.162 C 398.403 206.089 396.818 198.947 392.786 195.425 C 388.439 191.629 383.936 190.416 379.724 189.777 Q 375.705 189.166 373.647 189.904 Q 376.651 192.065 376.355 193.058 C 376.058 194.051 370.007 193.66 368.699 194.666 Q 367.391 195.672 366.157 197.712 Q 372.698 197.202 373.627 198.967 C 374.509 200.64 373.413 205.433 369.874 213.93 C 367.003 220.823 368.631 230.233 367.016 235.363 C 365.652 239.693 362.516 244.642 356.53 247.633 Q 350.185 250.803 345.705 250.35 Q 347.384 248.219 347.971 245.76 Q 348.547 243.345 347.794 241.789 Q 340.945 244.298 334.493 244.786 Q 328.042 245.275 316.898 242.952 L 316.898 242.952 L 316.898 242.952 L 316.898 242.952 Z  M 181.214 219.01 Q 173.816 178.768 180.296 160.98 C 186.776 143.191 196.654 130.608 202.406 121.073 C 209.287 109.669 209.485 93.613 202.427 80.303 C 196.047 68.273 175.321 62.24 162.873 63.285 C 150.424 64.33 128.803 67.363 122.635 86.344 C 116.605 104.899 130.221 117.01 132.204 117.968 C 134.187 118.926 136.411 119.065 138.249 117.648 C 140.569 115.86 138.04 109.961 138.82 104.76 C 139.674 99.065 142.874 93.673 148.681 88.945 C 161.179 78.77 176.851 83.251 169.71 83.717 C 162.568 84.184 157.609 86.891 158.408 88.683 C 158.966 89.932 162.868 87.868 167.428 87.591 Q 171.988 87.315 177.744 89.085 Q 167.379 88.758 165.792 91.512 C 165.005 92.878 168.975 93.735 171.297 95.62 C 173.586 97.478 179.198 103.152 177.976 113.377 C 176.754 123.601 175.132 131.704 168.244 146.246 C 161.357 160.789 160.463 168.174 160.295 171.656 Q 160.127 175.137 161.132 180.489 Q 164.579 171.671 167.136 168.176 Q 169.693 164.681 172.105 161.761 Q 170.355 175.872 171.158 188.551 Q 171.961 201.23 181.214 219.01 L 181.214 219.01 L 181.214 219.01 Z  M 315.008 221.798 Q 323.146 177.146 316.356 157.447 C 309.565 137.748 298.937 128.466 295.565 118.078 C 291.674 106.093 293.532 83.101 313 72 C 330.436 62.058 353.333 66 365.667 75.333 C 378 84.667 382.102 96.068 380.423 106.976 C 379.008 116.169 373.394 121.486 370.451 123.515 C 367.509 125.544 361.991 124.362 360.949 120.778 C 359.64 116.279 363.528 112.749 362.437 106.682 C 361.345 100.614 353.558 95.545 347.657 92.026 C 340.615 87.825 330.2 85.771 333.473 88.758 C 335.253 90.383 343.59 94.079 342.698 94.919 C 341.805 95.76 338.807 93.415 334.266 92.306 C 327.77 90.719 323.752 92.306 324.992 92.632 C 326.232 92.959 330.864 93.265 333.275 94.173 C 336.746 95.48 337.761 97.179 334.911 98.56 C 331.841 100.048 322.244 107.187 321.867 118.914 C 321.491 130.64 325.804 140.371 329.249 147.777 C 332.693 155.184 336.693 163.603 337.102 171.943 Q 337.51 180.284 336.913 185.86 Q 334.323 176.678 330.927 171.726 Q 327.532 166.775 326.177 165.756 Q 327.122 184.337 325.292 195.032 Q 323.462 205.726 315.008 221.798 L 315.008 221.798 Z  M 195.39 278.199 Q 195.592 278.043 195.797 277.887 Q 190.242 272.473 188.853 269.859 C 187.465 267.245 185.679 262.204 185.679 254.923 C 186.275 247.455 191.333 241.947 196.194 239.426 C 202.641 236.346 211.27 236.439 219.007 239.24 Q 226.744 242.04 234.878 250.442 Q 233.687 242.04 230.117 236.999 C 226.546 231.958 213.651 226.544 207.898 220.57 Q 202.145 214.595 199.963 193.685 Q 197.781 196.298 196.789 202.646 Q 195.797 208.994 196.789 213.101 Q 191.829 204.887 190.441 199.659 C 189.052 194.431 181.91 174.454 190.441 156.344 Q 198.971 138.234 217.42 126.472 Q 249.543 106.075 280.902 127.966 C 310.858 148.876 312.445 176.695 309.469 190.884 Q 306.495 205.064 299.351 213.101 Q 300.452 209.406 300.095 204.56 Q 299.649 198.492 296.773 192.191 Q 295.508 195.602 295.185 202.646 C 294.938 208.061 290.623 217.396 284.076 223.557 C 277.53 229.718 267.412 233.639 263.445 238.493 Q 259.477 243.347 261.858 250.442 Q 268.77 243.179 276.538 239.613 C 284.671 235.879 298.36 237.746 303.121 241.48 C 307.882 245.214 312.246 253.989 309.469 262.391 Q 306.692 270.792 301.534 277.327 Q 310.262 275.086 312.841 273.593 Q 315.42 272.099 318.991 266.872 Q 326.331 269.485 334.862 272.846 C 343.392 276.207 356.088 279.754 369.777 280.314 C 383.465 280.874 408.858 281.621 417.388 283.301 C 425.918 284.982 445.855 297.751 445.955 319.615 C 446.054 341.365 428.696 348.46 420.066 350.887 C 410.43 353.597 397.847 351.447 389.714 348.647 C 382.583 346.192 369.578 341.739 365.015 341.552 C 360.453 341.365 360.651 346.406 358.667 346.033 Q 356.683 345.66 352.319 341.552 Q 352.716 347.9 355.493 352.007 C 358.271 356.115 364.718 361.529 371.562 360.036 C 376.132 359.038 381.283 356.768 383.068 360.596 C 384.366 363.379 383.068 366.477 377.613 371.518 C 372.006 376.698 365.511 376.465 360.75 375.812 C 355.45 375.084 344.384 368.624 339.524 360.689 C 334.887 353.119 334.099 340.897 335.655 331.284 C 337.242 321.482 350.484 315.741 360.254 314.667 C 373.611 313.2 393.781 324.002 397.55 324.936 C 401.319 325.869 407.899 322.524 408.858 323.535 C 409.816 324.547 406.775 328.763 410.544 326.989 C 414.249 325.246 416.592 320.12 416.694 315.321 C 416.793 310.653 410.643 300.104 410.742 305.799 Q 410.872 313.27 407.667 312.333 Q 407.031 309.288 406.378 304.679 C 405.783 300.478 402.311 298.891 401.418 300.011 C 400.526 301.131 403.501 310.933 397.55 312.427 C 391.598 313.92 375.728 306.452 363.428 305.705 Q 351.129 304.959 338.036 311.68 Q 331.092 300.524 328.216 297.864 Q 323.035 293.073 312.643 290.769 Q 317.404 296.93 323.752 307.199 C 330.1 317.468 327.125 342.859 320.578 356.488 C 314.032 370.117 296.177 380.106 302.129 401.017 C 308.08 421.927 328.988 416.893 333.275 413.245 C 340.515 407.084 342.103 400.55 341.21 395.322 C 340.317 390.094 336.405 384.39 338.036 381.32 C 339.028 379.453 344.781 377.585 352.319 389.348 C 360.234 401.697 361.048 420.714 349.145 432.662 C 335.882 445.977 306.89 441.998 293.598 432.662 C 279.315 422.767 271.38 395.135 272.967 378.892 Q 274.554 362.649 279.315 349.02 L 285.663 354.995 Q 282.886 341.365 284.076 341.552 Q 285.266 341.739 293.598 344.539 Q 280.505 328.11 269.793 319.148 Q 259.08 310.186 247.574 305.705 Q 231.902 314.107 220.594 323.629 Q 209.287 333.151 203.137 346.033 Q 207.568 343.938 209.683 343.186 C 210.691 342.827 211.932 342.377 213.453 341.879 Q 212.163 345.239 211.37 348.04 Q 210.576 350.841 210.031 354.855 Q 215.883 349.347 217.371 349.86 C 218.859 350.374 225.951 383 221.785 401.67 C 217.762 419.699 211.956 427.246 195.598 436.21 C 179.926 444.798 160.364 442.734 149.971 434.716 C 137.87 425.381 136.481 405.964 139.655 395.322 C 142.829 384.68 154.137 378.706 157.113 380.386 C 160.088 382.066 159.89 385.054 157.708 388.041 C 155.635 390.878 152.202 397.776 156.716 407.271 C 160.088 414.366 171.177 417.306 180.918 414.739 C 190.837 412.125 194.607 400.736 194.408 390.841 C 194.21 380.946 180.812 366.417 174.57 354.995 C 167.428 341.926 167.428 327.736 169.015 316.161 C 170.602 304.585 177.546 297.304 182.505 290.769 Q 182.637 290.595 182.772 290.422 Q 182.689 290.409 182.604 290.396 Q 171.297 293.85 165.544 299.824 Q 160.975 304.569 158.303 312.333 Q 145.904 305.799 134.696 306.452 C 124.08 307.071 115.849 307.479 106.129 310.373 C 96.408 313.267 95.317 310.56 94.127 308.599 Q 92.936 306.639 94.028 299.544 Q 90.357 301.505 89.068 303.932 C 87.779 306.359 89.068 310.653 88.77 312.24 C 88.473 313.827 86.39 312.987 85.497 312.053 Q 84.604 311.12 85.001 303.465 Q 79.347 308.599 79.149 316.627 Q 78.951 324.656 87.977 328.67 L 86.985 324.096 Q 93.234 325.776 97.797 325.589 C 102.36 325.402 100.758 324.066 114.064 318.121 C 123.884 313.734 136.603 313.681 148.979 318.494 C 160.981 323.162 162.965 340.245 158.898 353.874 C 154.911 367.235 142.73 373.758 131.224 375.438 C 119.718 377.119 112.08 364.983 112.675 362.089 C 113.27 359.195 117.932 358.449 120.214 359.662 C 122.495 360.876 127.52 361.27 130.827 360.129 C 136.779 358.075 139.595 353.792 141.738 350.514 Q 144.119 346.873 142.532 340.712 Q 141.639 342.112 140.548 343.699 Q 139.457 345.286 138.266 346.313 Q 130.232 335.671 115.552 344.913 C 100.872 354.154 82.025 353.408 66.949 347.06 C 51.872 340.712 47.904 326.149 52.566 307.012 C 57.228 287.875 82.025 281.434 97.003 280.967 C 111.981 280.501 131.621 281.061 146.499 277.327 Q 161.378 273.593 175.76 265.938 Q 178.24 269.579 181.315 272.193 C 184.2 274.645 187.585 276.461 195.39 278.199 L 195.39 278.199 L 195.39 278.199 L 195.39 278.199 L 195.39 278.199 L 195.39 278.199 Z " fill-rule="evenodd" fill="rgb(29,30,31)"/></g></svg>